<?xml version="1.0" standalone="no"?>
<!DOCTYPE svg PUBLIC "-//W3C//DTD SVG 20010904//EN"
 "http://www.w3.org/TR/2001/REC-SVG-20010904/DTD/svg10.dtd">
<svg version="1.0" xmlns="http://www.w3.org/2000/svg"
 width="938.000000pt" height="938.000000pt" viewBox="0 0 938.000000 938.000000"
 preserveAspectRatio="xMidYMid meet">
<metadata>
Created by potrace 1.15, written by Peter Selinger 2001-2017
</metadata>
<g transform="translate(0.000000,938.000000) scale(0.100000,-0.100000)"
fill="#000000" stroke="none">
<path d="M4599 8477 c-34 -17 -537 -514 -2004 -1981 -2177 -2177 -1995 -1983
-2009 -2143 -4 -43 -14 -98 -22 -123 -7 -25 -18 -83 -24 -130 -5 -47 -16 -110
-25 -140 -8 -30 -15 -73 -15 -96 0 -22 -7 -63 -15 -90 -9 -27 -20 -91 -25
-142 -5 -51 -14 -102 -20 -113 -6 -11 -16 -62 -21 -112 -5 -51 -16 -110 -23
-132 -8 -22 -17 -75 -21 -117 -3 -43 -12 -95 -19 -116 -8 -22 -17 -74 -21
-118 -4 -43 -13 -93 -21 -111 -7 -18 -16 -65 -19 -105 -4 -40 -16 -106 -26
-147 -10 -41 -19 -94 -19 -117 0 -23 -9 -71 -20 -106 -11 -34 -20 -84 -20
-109 0 -25 -9 -79 -20 -120 -11 -41 -20 -95 -20 -120 0 -26 -9 -75 -19 -110
-10 -35 -22 -97 -26 -137 -3 -40 -12 -90 -19 -110 -7 -20 -17 -73 -21 -116 -4
-44 -13 -100 -21 -125 -8 -25 -18 -89 -24 -141 -6 -66 -14 -98 -24 -106 -22
-15 -23 -144 -2 -144 7 0 19 -13 26 -30 8 -19 31 -40 66 -60 l54 -30 2287 0
2288 0 48 25 c35 19 585 563 2006 1984 1904 1906 1958 1961 1978 2017 12 33
24 91 28 129 4 39 16 103 26 144 10 41 19 93 19 115 0 23 9 74 20 115 11 41
20 94 20 117 0 23 9 70 19 105 10 35 21 98 25 139 3 41 12 93 20 115 8 22 15
60 16 85 0 25 7 70 15 100 9 30 20 96 26 145 5 50 16 106 23 125 7 19 17 71
21 115 4 44 13 98 21 120 8 22 17 72 20 110 3 39 15 103 25 144 10 41 19 94
19 117 0 23 9 71 20 106 11 34 20 84 20 109 0 25 9 79 19 120 10 41 22 104 25
141 4 37 12 84 20 105 7 21 16 73 20 117 4 43 13 97 21 120 7 22 16 75 20 116
4 41 14 93 22 115 8 22 18 85 23 140 6 71 13 102 24 111 21 15 23 119 2 127
-8 3 -22 21 -30 39 -9 19 -35 44 -59 58 l-42 25 -2295 2 -2295 2 -46 -22z
m4126 -351 c19 -13 -94 -128 -1735 -1765 l-1755 -1751 -1980 -2 c-1089 -2
-1985 -1 -1992 0 -6 2 -13 11 -15 20 -2 11 588 608 1738 1758 957 958 1747
1744 1755 1747 8 3 903 6 1990 6 1686 1 1978 -1 1994 -13z m190 -389 c4 -13
-1 -43 -9 -68 -8 -24 -20 -85 -26 -134 -5 -50 -17 -108 -25 -130 -8 -22 -14
-63 -15 -90 0 -28 -7 -75 -15 -105 -8 -30 -19 -92 -24 -137 -5 -44 -16 -101
-24 -125 -8 -23 -18 -79 -22 -122 -4 -44 -13 -96 -20 -116 -7 -20 -16 -72 -20
-116 -4 -43 -14 -97 -22 -119 -7 -21 -18 -81 -23 -133 -6 -51 -16 -105 -24
-120 -7 -15 -16 -65 -19 -112 -3 -47 -13 -103 -21 -125 -8 -22 -15 -60 -16
-85 0 -25 -7 -70 -15 -100 -9 -30 -20 -95 -26 -145 -5 -49 -16 -108 -23 -130
-8 -22 -17 -73 -20 -113 -4 -40 -13 -91 -21 -112 -7 -21 -16 -76 -20 -122 -4
-49 -15 -98 -26 -120 -28 -57 -3414 -3439 -3428 -3425 -15 15 -14 73 4 137 9
30 20 93 25 140 6 47 17 105 24 130 8 25 18 79 21 120 4 41 13 94 21 116 8 23
18 82 23 132 5 50 15 100 21 112 7 12 16 64 21 116 5 52 14 104 20 115 6 12
15 63 20 115 5 52 13 104 19 115 6 11 16 64 21 116 6 53 14 104 19 113 5 10
14 60 20 111 6 52 17 114 25 139 7 25 17 77 20 115 4 39 16 103 26 144 10 41
19 90 19 110 0 20 9 68 20 106 11 38 20 90 20 115 0 25 9 78 20 118 11 39 20
89 20 109 0 21 8 50 18 64 25 39 3408 3419 3421 3419 6 0 13 -10 16 -23z
m-3832 -3559 c0 -37 -8 -88 -16 -115 -9 -26 -18 -81 -22 -121 -3 -40 -12 -91
-20 -112 -8 -21 -17 -72 -20 -112 -4 -40 -15 -104 -25 -143 -10 -38 -21 -100
-24 -137 -3 -38 -10 -77 -16 -87 -5 -11 -14 -63 -20 -115 -5 -52 -16 -112 -24
-133 -8 -21 -17 -72 -20 -113 -3 -42 -12 -94 -19 -115 -8 -22 -17 -74 -20
-115 -4 -42 -13 -94 -20 -115 -8 -22 -18 -76 -22 -119 -4 -44 -13 -95 -20
-115 -7 -20 -16 -70 -20 -111 -3 -41 -15 -104 -26 -139 -10 -35 -19 -87 -19
-116 0 -29 -7 -72 -15 -96 -9 -24 -20 -82 -25 -129 -4 -47 -14 -98 -20 -115
-6 -16 -16 -72 -21 -123 -5 -51 -13 -102 -19 -113 -6 -11 -15 -59 -20 -107 -7
-70 -13 -90 -31 -104 -20 -17 -134 -18 -2073 -18 -1626 0 -2056 3 -2068 13
-15 11 -16 21 -3 117 8 58 21 130 30 160 8 30 15 75 15 101 0 26 7 66 15 90 9
24 20 82 25 129 5 47 15 103 23 125 8 22 17 76 20 120 4 44 13 98 21 120 9 22
15 60 16 85 0 25 7 70 15 100 9 30 21 102 29 160 7 58 17 114 23 125 6 11 14
58 18 105 4 47 13 100 21 118 7 19 17 70 20 115 4 45 13 98 21 117 8 19 18 75
23 125 6 49 17 115 25 145 8 30 15 73 15 96 0 23 9 71 20 106 11 34 20 84 20
109 0 25 9 79 19 120 10 41 22 106 26 144 4 39 13 88 20 110 7 22 16 63 20 90
4 28 9 53 12 58 2 4 939 6 2081 5 l2077 -3 -2 -67z"/>
<path d="M6433 7088 c-321 -321 -595 -602 -608 -625 -14 -24 -25 -57 -25 -78
0 -45 38 -113 82 -145 43 -32 122 -39 169 -15 48 24 1178 1160 1195 1201 32
77 11 161 -54 212 -36 29 -47 32 -108 32 l-68 0 -583 -582z"/>
<path d="M5365 6000 c-18 -6 -142 -122 -333 -312 -311 -310 -342 -348 -342
-419 0 -79 79 -165 160 -176 66 -9 115 31 432 349 305 307 318 322 318 398 0
46 -22 103 -50 131 -23 23 -39 29 -91 33 -35 3 -77 1 -94 -4z"/>
<path d="M944 4232 c-6 -4 -14 -40 -18 -80 -4 -40 -13 -91 -21 -112 -8 -21
-17 -72 -21 -112 -3 -40 -12 -91 -19 -113 -8 -22 -16 -71 -20 -110 -4 -38 -16
-103 -26 -144 -10 -41 -19 -93 -19 -115 0 -23 -9 -73 -20 -111 -11 -38 -20
-88 -20 -111 0 -22 -9 -76 -20 -119 -11 -43 -20 -95 -20 -115 0 -20 -9 -72
-20 -115 -11 -43 -20 -92 -20 -109 0 -17 -7 -60 -16 -96 -8 -36 -21 -111 -29
-167 -7 -56 -18 -110 -24 -120 -5 -10 -12 -52 -16 -93 -4 -41 -13 -97 -20
-125 -8 -27 -19 -88 -25 -135 -5 -47 -17 -107 -25 -134 -8 -27 -15 -68 -15
-91 0 -23 -9 -75 -19 -116 -10 -41 -22 -105 -25 -142 -4 -38 -13 -87 -21 -110
-7 -23 -15 -71 -17 -107 l-3 -65 2057 -3 2058 -2 14 22 c8 13 17 57 21 98 3
41 13 98 20 125 8 28 19 89 24 135 6 47 17 107 26 134 8 27 15 68 15 91 0 23
9 75 20 116 11 41 20 92 20 114 0 22 7 65 15 95 9 30 20 93 26 140 5 47 16
105 23 130 8 25 17 74 21 110 3 36 12 88 20 115 7 28 18 91 24 140 6 50 18
112 26 139 8 27 15 68 15 91 0 23 9 75 20 116 11 41 20 92 20 114 0 22 7 65
15 95 9 30 20 93 25 140 6 47 16 105 24 130 8 25 17 78 21 118 3 40 12 90 20
111 7 21 16 73 20 117 4 43 14 96 21 118 8 21 14 58 14 82 l0 44 -2057 0
c-1132 0 -2063 -4 -2069 -8z"/>
</g>
</svg>
